<?xml version="1.0" encoding="UTF-8"?>
<svg id="Layer_1" data-name="Layer 1" xmlns="http://www.w3.org/2000/svg" viewBox="0 0 897.44 693.26">
  <path d="M894.78,507.06c-.86-1.3-72.74-63.46-85.91-74.9-13.17-11.44-74.9-92.17-93.25-119.15-18.35-26.98-72.74-96.49-72.74-96.49l-48.35-64.11s-56.55-83.1-60.01-87.64c-3.45-4.53-16.19-34.97-23.53-46.62-7.34-11.66-16.84-16.62-19.43-17.48-2.59-.86-11.22,1.73-11.87,5.61-.65,3.89-1.29,7.12,4.75,19.21,6.04,12.09,18.13,73.39,19.86,130.1,1.73,56.71,11.77,110.3,9.18,147.43-21.35-2.04-38.33-1.37-56.68,1.62-12.95-46.62-31.94-158.28-37.98-183.31-6.04-25.04-9.5-91.52-11.22-97.57-1.73-6.04-4.32-9.5-9.5-15.54-5.18-6.04-12.09-6.48-16.4,0-.65,3.24.43,27.41,2.16,36.05,1.73,8.63.43,35.18-4.32,61.09-4.75,25.9-13.6,54.18-20.51,78.79-6.91,24.61-25.04,81.16-33.67,98.43-5.83-2.16-26.33-13.17-43.6-17.27-17.27-4.1-71.15-9.06-127.82,2.94C12.52,298.19.29,402.15.5,435.82c.22,33.67,17.27,56.55,30.87,71.02,13.6,14.46,50.89,38.2,106.2,39.72,19.44-.04,29.96-.16,47.49-4.53,0,5.4-25.69,33.89-30.44,42.31-4.75,8.42-6.69,8.63.86,7.77,7.99-4.32,24.95-19.37,46.53-50.02,80.3-12.95,123.56-40.85,137.37-48.62,24.5,16.94,98.86,15.86,157.57-2.81,5.4,11.01-16.68,78.84-24.28,106.2-8.61,31-25.15,64.54-27.74,70.8-2.59,6.26-2.16,19.64-1.08,21.8,1.08,2.16.22,4.53,4.96,2.59,1.73-3.02,37.77-69.5,43.17-86.56,5.4-17.05,29.36-98.21,30.87-121.96,17.92-6.91,66.27-24.61,85.69-33.46,19.43-8.85,62.17-29.79,62.17-29.79,0,0,4.53-9.71-3.67-10.14s-22.45,4.32-44.47,10.79c-22.02,6.48-70.37,23.96-91.09,32.81,1.73-11.44,9.75-83.34,6.73-122.62,66.21,7.3,97.53,27.65,119.33,38.44,21.8,10.79,78.14,42.09,114.4,68.64,36.26,26.55,82.67,66.91,97.35,86.2,6.91,1.15,13.17-.07,13.17-.07,0,0,13.38.65,14.25-1.94.86-2.59-1.08-14.03-1.94-15.33ZM440.47,332.49c4.21,13.27,21.21,68.48,24.77,74.3-12.95-18.13-52.13-63.78-55.69-66.05,9.71-5.5,21-7.43,30.92-8.25ZM375.12,200.36c2.19-6.9,15.25-52.36,19.64-101.91,20.33,108.8,35.78,199.61,39.15,209.72-12.08,2.85-25.54,4.49-46.28,15.63-14.01-12.86-39.34-30.81-45.76-33.89,12.73-24.39,29.1-76.52,33.25-89.55ZM164.36,528.63c-40.25,6.16-89.55-8.59-123.92-45.75-16.8-18.16-20.07-62.17-6.47-100.37,13.6-38.21,53.64-75.59,97.31-90.6,37.92-13.04,93.75-13.65,122.77-9.46,15.14,2.19,38.79,3.13,64.57,21.46,0,0-35.98,83.78-52.17,113.57-16.19,29.79-52.6,83.32-67.5,104.69-7.8,3.92-18.45,3.99-34.58,6.46ZM220.04,515.43c13.48-19.15,75.64-114.47,113.85-203.18,0,0,21.37,14.25,31.73,22.66-29.58,16.76-55.65,48.25-66.01,68.33-10.36,20.07-4.57,59.89,9.03,74.78-13.98,10.87-54.82,31.76-88.59,37.41ZM447.86,478.89c-20.72,1.35-50.72,1.94-70.37,0,12.74-4.53,63.45-33.99,67.56-36.91,5.47-3.89,4.53-8.63,1.94-10.79-2.59-2.16-12.74-.43-34.1,4.1-21.37,4.53-57.63,21.37-77.06,33.03-7.12-4.53-25.25-22.02-19.53-45.33,5.72-23.31,22.13-45.98,68.75-73.17,15.54,9.71,30,25.47,47.06,44.47,0,0,38.21,47.7,47.92,75.98-8.85,4.96-23.17,8.05-32.16,8.63ZM504.09,464.42c-7.45-23.31-35.94-129.83-38.85-135.34,21.37-3.24,39.43-1.8,48.25-1.07.32,39.18-7.78,127.34-9.4,136.41ZM633.92,329.41c-42.74-18.78-73.99-22.73-95.2-25.06,0-44.36-13.59-220.37-18.77-230.73,19.75,42.74,210.78,298.2,233.12,320.86-38.53-31.08-76.41-46.3-119.15-65.08Z" fill="#77387c" stroke="#1e1827" stroke-miterlimit="10"/>
</svg>