<?xml version="1.0" encoding="UTF-8"?>
<svg id="Layer_1" data-name="Layer 1" xmlns="http://www.w3.org/2000/svg" viewBox="0 0 22.85 17.64">
  <path d="M22.79,12.91s-1.85-1.62-2.19-1.91c-.34-.29-1.91-2.35-2.38-3.04-.47-.69-1.85-2.46-1.85-2.46l-1.23-1.63s-1.44-2.12-1.53-2.23c-.09-.12-.41-.89-.6-1.19-.19-.3-.43-.42-.5-.45-.07-.02-.29.04-.3.14s-.03.18.12.49c.15.31.46,1.87.51,3.32.04,1.45.26,2.93.2,3.88-.15-.11-.93-.12-1.4-.05-.33-1.19-.82-4.07-.98-4.71-.15-.64-.24-2.33-.29-2.49-.04-.15-.11-.24-.24-.4-.13-.15-.31-.17-.42,0-.02.08.01.7.06.92.04.22.01.9-.11,1.56-.12.66-.35,1.38-.52,2.01-.18.63-.64,2.07-.86,2.51-.15-.06-.67-.34-1.11-.44-.44-.1-1.79-.33-3.25.05-1.46.38-1.61.63-2.52,1.35C.49,8.87,0,10.24,0,11.1c0,.86.44,1.44.79,1.81s1.3.97,2.71,1.01c.5,0,.76,0,1.21-.12,0,.14-.65.86-.78,1.08-.12.21-.17.22.02.2.2-.11.64-.49,1.19-1.27,2.05-.33,3.15-1.04,3.5-1.24.62.43,2.52.4,4.02-.07.14.28-.43,2.01-.62,2.71-.22.79-.64,1.65-.71,1.8-.07.16-.06.5-.03.56.03.06,0,.12.13.07.04-.08.96-1.77,1.1-2.21.14-.43.75-2.5.79-3.11.46-.18,1.69-.63,2.18-.85s1.58-.76,1.58-.76c0,0,.12-.25-.09-.26s-.57.11-1.13.28c-.56.17-1.79.61-2.32.84.04-.29.18-2.09.1-3.09.92.03,2.55.67,3.11.94.56.28,1.99,1.07,2.92,1.75.92.68,2.11,1.71,2.48,2.2.18.03.34,0,.34,0,0,0,.34.02.36-.05s-.03-.36-.05-.39ZM11.31,8.47c.11.34.45,1.74.54,1.89-.33-.46-1.33-1.63-1.42-1.68.25-.14.75-.23.88-.21ZM9.55,5.09c.06-.18.39-1.33.5-2.6.52,2.77.92,5.12,1.01,5.38-.35,0-.82.13-1.19.37-.34-.38-1.02-.83-1.17-.86.32-.62.74-1.95.85-2.28ZM4.18,13.46c-1.03.16-2.28-.22-3.16-1.17-.43-.46-.51-1.58-.17-2.56s1.78-1.8,2.87-2.24,2.33-.26,3.07-.15c.39.06.79.18,1.25.46,0,0-.86,2.06-1.27,2.82s-1.34,2.12-1.72,2.67c-.2.1-.47.1-.88.16ZM5.6,13.12c.34-.49,1.93-2.92,2.9-5.18,0,0,.54.36.81.58-1.25.5-1.65,1.53-1.91,2.05-.26.51.12,1.22.46,1.6-.36.28-1.4.81-2.26.95ZM11.4,12.19c-.53.03-1.29.05-1.79,0,.32-.12,1.62-.87,1.72-.94.14-.1.12-.22.05-.28-.07-.06-.32-.01-.87.1-.54.12-1.47.54-1.96.84-.18-.12-.64-.56-.5-1.16s.56-1.17,1.75-1.87c.4.25.76.65,1.2,1.13,0,0,.97,1.22,1.22,1.94-.23.13-.59.21-.82.22ZM12.84,11.82c-.19-.59-.92-3.31-.99-3.45.54-.08,1.1-.05,1.23.03,0,1-.2,3.19-.24,3.42ZM16.14,8.38c-1.09-.48-2-.64-2.43-.59,0-1.13-.35-5.67-.48-5.93.5,1.09,5.37,7.6,5.94,8.18-.98-.79-1.95-1.18-3.04-1.66Z" fill="#fff"/>
</svg>